<svg width="320" height="176" viewBox="0 0 320 176" fill="none" xmlns="http://www.w3.org/2000/svg">
<g clip-path="url(#clip0_12935_71350)">
<path d="M286.705 124.876C286.705 124.876 265.676 154.438 253.867 163.962C244.724 171.352 238.4 171.429 231.848 164.114C223.01 154.133 201.219 120.076 201.219 120.076C198.728 116.064 197.931 111.227 199.002 106.628C200.073 102.028 202.926 98.0415 206.933 95.543C215.238 90.362 226.667 92.8763 231.848 101.257L243.886 121.295L245.105 123.352L245.41 123.733L267.352 104.076L286.705 124.876Z" fill="#4C7DFF"/>
<path d="M245.105 123.352C242.898 125.983 240.983 128.844 239.39 131.886C239.306 132.081 239.168 132.248 238.993 132.37C238.818 132.491 238.613 132.561 238.4 132.571L237.867 132.419C237.607 132.274 237.41 132.039 237.312 131.758C237.213 131.477 237.221 131.171 237.333 130.895C239.145 127.456 241.343 124.235 243.886 121.295L245.105 123.352Z" fill="#2859D1"/>
<path d="M313.296 109.333L290.515 63.5428L288.991 60.4189L278.781 64.5332L282.057 71.6189L302.096 114.667L313.296 109.333Z" fill="#FF8C19"/>
<path d="M288.762 83.5809L289.295 80.6095C289.543 79.1228 289.238 77.597 288.438 76.3198C287.638 75.0426 286.398 74.1022 284.952 73.6761C281.752 72.6857 279.39 74.2095 277.714 76.8761C276.038 79.5428 272.457 85.7904 272.381 89.5999C272.453 91.3317 272.84 93.0358 273.524 94.6285L263.314 104.229C262.971 104.618 262.782 105.119 262.782 105.638C262.782 106.157 262.971 106.658 263.314 107.048C268.038 112.152 285.028 129.448 287.924 130.438C290.819 131.429 291.886 130.286 293.181 128.609L302.781 112.305L288.762 83.5809Z" fill="#8F473B"/>
<path d="M305.676 72.0762C305.676 72.0762 295.542 70.5524 293.714 69.9429L306.895 106.819C306.895 106.819 315.657 102.171 318.552 96.3048C321.447 90.4381 319.619 87.3143 317.333 84.6476C315.047 81.981 314.361 81.0667 314.057 78.3238C313.371 71.3143 305.676 72.0762 305.676 72.0762Z" fill="#8F473B"/>
<path d="M290.515 63.5428L282.057 71.6189L278.781 64.5332L288.991 60.4189L290.515 63.5428Z" fill="black"/>
<path d="M317.485 113.219L302.171 120.533L297.295 114.362L315.657 105.524L317.485 113.219Z" fill="#ED5F00"/>
<path d="M293.409 60.9525L276.571 69.1048L269.79 60.9525L291.2 50.6667L293.409 60.9525Z" fill="#2859D1"/>
<path d="M319.924 35.1238L317.714 41.5238L289.6 55.0857L287.543 56.0762L246.324 75.8857L239.848 73.6762L224.076 40.7619L226.286 34.3619L297.752 0L304.152 2.28571L319.924 35.1238Z" fill="url(#paint0_linear_12935_71350)"/>
<path d="M269.638 18.8953L285.409 51.7334L287.542 56.0762L289.6 55.0857L287.466 50.7429L271.695 17.9048L269.638 18.8953Z" fill="#4C7DFF"/>
<path opacity="0.5" d="M259.962 66.2856L248.305 70.8571L251.2 26.2094L262.857 21.3333L259.962 66.2856Z" fill="white"/>
<path d="M319.924 35.1238L317.714 41.5238L289.6 55.0857L287.543 56.0762L246.324 75.8857L239.848 73.6762L248.381 69.5619L260.114 63.9238L285.41 51.7333L287.467 50.7428L319.924 35.1238Z" fill="#4C7DFF"/>
<path d="M304.152 2.28571L271.695 17.9048L269.638 18.8952L262.857 22.0952L251.124 27.7333L224.076 40.7619L226.286 34.3619L297.752 0L304.152 2.28571Z" fill="#8CD9FF"/>
<path d="M310.095 82.438L307.428 84.8761L303.619 75.2C303.619 75.2 297.066 80.5333 294.476 83.7333C291.885 86.9333 293.638 91.6571 297.371 92.9523C298.255 93.2409 299.188 93.3446 300.114 93.2571C300.23 93.2353 300.349 93.2383 300.464 93.2657C300.578 93.2932 300.686 93.3446 300.78 93.4165C300.873 93.4884 300.95 93.5793 301.006 93.6831C301.062 93.7869 301.096 93.9014 301.104 94.019C301.163 95.1931 301.582 96.3205 302.305 97.2477C303.027 98.1749 304.018 98.8566 305.142 99.2C310.095 100.648 315.504 94.4 315.504 94.4L310.095 82.438Z" fill="#8F473B"/>
<path d="M306.21 73.3713C306.896 72.3046 309.638 66.5904 305.981 62.2475C302.324 57.9046 299.124 60.1142 296.991 61.257C294.857 62.3999 291.81 68.4951 290.21 72.5332C288.61 76.5713 291.657 81.9046 295.924 82.057C301.867 82.2856 305.524 74.438 306.21 73.3713Z" fill="#8F473B"/>
<path d="M309.485 72.5333L302.552 80.8381C301.731 81.7924 300.714 82.5587 299.57 83.0846C298.426 83.6105 297.183 83.8837 295.924 83.8857H293.866C293.681 83.884 293.499 83.834 293.338 83.7404C293.178 83.6469 293.045 83.5131 292.952 83.3523L294.324 81.9047L293.866 81.6762H295.619C296.596 81.7454 297.575 81.5811 298.476 81.1969C299.377 80.8127 300.173 80.2196 300.8 79.4666L306.895 72.1523C307.769 72.194 308.637 72.3216 309.485 72.5333Z" fill="#6B2F34"/>
<path d="M316.343 94.1712C314.987 97.3531 312.485 99.9093 309.333 101.333L308.267 99.276C310.939 98.1349 313.068 96.0059 314.209 93.3331C314.259 93.1942 314.338 93.0671 314.439 92.9599C314.541 92.8528 314.663 92.7678 314.799 92.7105C314.936 92.6532 315.082 92.6248 315.23 92.6271C315.377 92.6293 315.523 92.6622 315.657 92.7236C315.938 92.8269 316.168 93.0364 316.296 93.3072C316.424 93.5779 316.441 93.8882 316.343 94.1712Z" fill="#6B2F34"/>
<path d="M297.448 83.9617C299.581 86.5522 299.733 90.3617 297.067 92.4189C294.4 94.476 291.276 93.1046 287.695 91.276C284.114 89.4474 281.6 87.9236 279.314 85.257C277.029 82.5903 276.038 79.0855 278.248 76.0379C279.342 74.5708 280.967 73.5901 282.775 73.3053C284.584 73.0206 286.431 73.4544 287.924 74.5141C291.2 76.7236 295.695 81.9046 297.448 83.9617Z" fill="url(#paint1_linear_12935_71350)"/>
<path d="M239.162 116.648C233.676 121.752 215.009 135.771 212.19 137.752C209.371 139.733 206.704 141.029 204.647 138.21L203.504 136.61L202.057 134.705L201.295 135.771L200.228 137.371C198.507 139.823 196.513 142.073 194.285 144.076C194.285 144.076 192.381 156.8 188.495 167.39C187.64 169.693 186.102 171.678 184.086 173.081C182.071 174.483 179.674 175.236 177.219 175.238H94.7044C90.7425 175.238 86.1711 169.6 87.6187 163.429C101.714 104.229 115.047 67.9619 115.047 67.9619C115.047 67.9619 131.581 70.0952 140.876 71.6191L204.419 78.5524C218.895 81.4476 223.085 85.9429 239.771 111.695C240.533 112.914 241.219 114.743 239.162 116.648Z" fill="#FFDAA2"/>
<path d="M200.457 136.991C200.692 136.555 200.973 136.147 201.296 135.771L200.229 137.371C200.222 137.292 200.241 137.213 200.282 137.144C200.323 137.076 200.384 137.022 200.457 136.991Z" fill="#FFC619"/>
<path d="M214.324 117.41C212.267 123.048 208.458 129.829 203.505 136.61L202.058 134.705C206.705 128.305 210.286 121.905 212.191 116.571C212.32 116.311 212.533 116.102 212.796 115.978C213.059 115.854 213.355 115.821 213.639 115.886C213.925 116.005 214.156 116.228 214.284 116.512C214.411 116.795 214.426 117.116 214.324 117.41Z" fill="#FFC619"/>
<path d="M204.114 104.99C204.139 105.983 204.088 106.977 203.961 107.962C202.819 118.324 193.523 126.781 182.171 128C177.219 128.533 170.057 127.543 165.257 125.028C152.685 118.248 143.923 106.971 138.971 100.648C134.019 94.3237 131.276 89.2951 130.819 85.0285C129.904 76.1142 137.219 68.8761 146.133 68.038C168.304 65.9809 194.742 70.2475 201.6 73.0666C208.457 75.8856 212.114 80.2285 213.18 86.5523C214.247 92.8761 208.99 101.638 204.114 104.99Z" fill="#FF78B9"/>
<path d="M204.114 104.99C204.14 105.983 204.089 106.977 203.962 107.962C197.185 112.833 189.07 115.494 180.724 115.581C180.421 115.581 180.13 115.461 179.916 115.246C179.701 115.032 179.581 114.741 179.581 114.438C179.581 114.135 179.701 113.844 179.916 113.63C180.13 113.416 180.421 113.295 180.724 113.295C189.224 113.187 197.449 110.267 204.114 104.99Z" fill="#FF2EA2"/>
<path d="M122.819 120.381C126.409 121.175 129.565 123.298 131.654 126.323C133.743 129.349 134.609 133.053 134.078 136.691C133.547 140.329 131.659 143.631 128.793 145.934C125.927 148.237 122.296 149.37 118.629 149.105C118.629 149.105 66.5144 158.324 53.2573 155.81C40.0001 153.295 42.743 140.571 47.924 126.705C53.1049 112.838 56.1525 112.229 65.9811 113.067L122.819 120.381Z" fill="#4C7DFF"/>
<path d="M171.962 132.19L168.991 132.8H168.762C169.458 133.356 169.986 134.095 170.286 134.933C170.67 136.138 170.825 137.405 170.743 138.667C170.697 139.8 170.407 140.911 169.895 141.923C169.382 142.935 168.658 143.825 167.772 144.533C167.351 144.905 167.059 145.399 166.936 145.946C166.813 146.493 166.865 147.065 167.086 147.581C168 149.714 167.924 153.524 165.943 155.581C163.962 157.638 160.686 158.4 156.419 158.4C152.153 158.4 145.448 155.962 139.81 154.514C134.172 153.067 133.791 153.067 130.972 153.067L111.086 152.61L120.686 118.705L134.476 118.933C134.476 118.933 149.105 111.924 155.048 111.39C160.991 110.857 161.6 112.61 162.286 116.343C162.436 117.046 162.537 117.759 162.591 118.476H170.286C174.4 118.629 176.838 120.99 177.295 124.343C177.753 127.695 175.01 131.505 171.962 132.19Z" fill="#8F473B"/>
<path d="M166.096 118.552H165.715C165.715 118.552 162.134 118.628 158.857 118.933H158.705C158.555 118.938 158.405 118.914 158.265 118.861C158.124 118.808 157.995 118.728 157.886 118.625C157.776 118.523 157.688 118.4 157.626 118.263C157.564 118.126 157.529 117.979 157.524 117.828C157.519 117.678 157.544 117.529 157.596 117.388C157.649 117.248 157.729 117.119 157.832 117.009C157.934 116.9 158.058 116.811 158.194 116.749C158.331 116.687 158.479 116.653 158.629 116.648L162.286 116.419C162.436 117.122 162.537 117.835 162.591 118.552H166.096Z" fill="#6B2F34"/>
<path d="M170.285 135.01L165.18 135.314H165.104C164.964 135.325 164.823 135.307 164.69 135.263C164.557 135.219 164.433 135.149 164.327 135.057C164.221 134.965 164.134 134.852 164.071 134.727C164.008 134.601 163.971 134.464 163.961 134.324C163.94 134.178 163.949 134.029 163.988 133.886C164.028 133.744 164.096 133.611 164.189 133.497C164.282 133.382 164.398 133.288 164.529 133.221C164.661 133.153 164.805 133.114 164.952 133.105L168.99 132.8H168.761C169.469 133.377 169.998 134.143 170.285 135.01Z" fill="#6B2F34"/>
<path d="M149.028 151.314C148.754 151.302 148.492 151.197 148.285 151.018C148.077 150.838 147.937 150.593 147.885 150.324C147.864 150.168 147.875 150.009 147.918 149.857C147.962 149.706 148.035 149.565 148.136 149.443C148.236 149.321 148.36 149.222 148.501 149.15C148.641 149.079 148.795 149.038 148.952 149.029C149.746 148.947 150.515 148.701 151.21 148.308C151.905 147.914 152.511 147.382 152.99 146.743C153.52 146.133 153.91 145.414 154.133 144.638C154.357 143.862 154.409 143.046 154.285 142.248C154.205 141.647 154.051 141.059 153.828 140.495C153.504 139.662 153.454 138.746 153.687 137.882C153.92 137.019 154.424 136.252 155.124 135.695C155.935 135.064 156.571 134.235 156.971 133.288C157.371 132.341 157.522 131.307 157.409 130.286C157.338 129.478 157.097 128.695 156.703 127.986C156.31 127.277 155.771 126.659 155.124 126.171C154.513 125.642 153.795 125.252 153.019 125.028C152.242 124.804 151.427 124.753 150.628 124.876C150.337 124.898 150.048 124.808 149.822 124.624C149.595 124.439 149.447 124.175 149.409 123.886C149.388 123.735 149.397 123.582 149.435 123.436C149.473 123.289 149.541 123.151 149.633 123.03C149.725 122.91 149.84 122.809 149.972 122.733C150.104 122.658 150.249 122.609 150.4 122.59C152.607 122.35 154.82 122.978 156.571 124.343C158.291 125.757 159.408 127.773 159.695 129.981C159.862 131.389 159.662 132.817 159.115 134.125C158.567 135.433 157.691 136.578 156.571 137.448C156.25 137.687 156.016 138.026 155.906 138.411C155.796 138.797 155.815 139.208 155.962 139.581C156.28 140.36 156.485 141.181 156.571 142.019C156.812 144.226 156.183 146.44 154.819 148.19C153.425 149.935 151.399 151.058 149.181 151.314H149.028Z" fill="#6B2F34"/>
<path d="M177.523 32.1525C158.171 45.4858 142.552 56.0763 122.666 68.8001C111.39 75.6572 101.104 58.2858 112.609 51.6572C133.028 39.7715 150.323 29.1048 171.581 19.581C175.619 17.7524 179.352 18.9715 180.342 22.0953C181.333 25.2191 179.276 27.2001 179.276 27.2001C179.276 27.2001 180.419 29.9429 177.523 32.1525Z" fill="url(#paint2_linear_12935_71350)"/>
<path d="M113.143 49.7526L113.904 80.4573L134.171 68.2669C135.059 67.7403 135.726 66.9097 136.048 65.929C136.37 64.9483 136.326 63.8841 135.924 62.9335L126.628 41.2192L113.143 49.7526Z" fill="#FFC619"/>
<path d="M78.781 62.019L115.886 63.3143C117.029 79.5429 114.667 98.1333 114.667 98.1333L67.8096 96.9143C68.3429 90.6667 74.5905 66.7429 78.781 62.019Z" fill="#464B90"/>
<path d="M82.2091 96.2285V115.124C82.2086 115.495 82.3506 115.852 82.6058 116.121C82.861 116.391 83.21 116.552 83.5805 116.571L107.2 118.248C107.422 118.26 107.639 118.323 107.833 118.432C108.027 118.542 108.194 118.695 108.319 118.879C108.444 119.063 108.526 119.274 108.556 119.495C108.586 119.716 108.566 119.941 108.495 120.152L102.4 138.057L119.238 143.086L131.352 115.581C135.009 107.048 130.361 97.8285 119.847 97.4476L83.8091 94.8571C83.6109 94.8236 83.4077 94.834 83.2139 94.8878C83.0201 94.9415 82.8406 95.0372 82.6879 95.1681C82.5352 95.2989 82.4132 95.4617 82.3305 95.645C82.2477 95.8283 82.2063 96.0275 82.2091 96.2285Z" fill="black"/>
<path d="M110.628 63.6952C109.755 65.662 108.628 67.5063 107.276 69.1809C105.084 71.9934 102.717 74.6653 100.19 77.1809C100.19 77.1809 97.4473 73.2952 93.9425 68.8761C92.4949 67.0475 90.8949 65.0666 89.3711 63.3142L110.628 63.6952Z" fill="#FFC619"/>
<path d="M110.628 63.6952C109.755 65.662 108.628 67.5063 107.276 69.1809C105.589 69.6694 103.849 69.9509 102.095 70.019C99.3313 70.1214 96.5714 69.7345 93.9425 68.8761C92.4949 67.0475 90.8949 65.0666 89.3711 63.3142L110.628 63.6952Z" fill="#FF2EA2"/>
<path d="M126.019 143.01C123.505 141.562 118.247 140.114 118.247 140.114L98.2094 134.933L95.0856 145.295C93.7903 149.562 96.3808 154.057 100.876 155.429L120.686 160.99C126.247 162.667 129.981 158.705 131.2 154.743C132.419 150.781 130.209 145.371 126.019 143.01Z" fill="#AA5F44"/>
<path d="M33.5234 24C40.9901 16.6857 67.8091 12.5714 80.3805 19.8857L73.371 30.1714C62.3234 30.1714 44.3424 33.219 38.0948 33.6761C31.8472 34.1333 27.8091 29.5619 33.5234 24Z" fill="#FF78B9"/>
<path d="M42.7423 24.0761C47.4661 22.0951 60.7232 18.5142 74.209 21.1047L69.8661 26.819C62.0185 26.7428 46.3994 28.7999 42.6661 29.0285C38.9328 29.257 38.247 26.057 42.7423 24.0761Z" fill="#FFAED7"/>
<path d="M44.6469 1.21902C54.323 -2.81908 80.7611 3.42854 89.6754 14.8571L79.3135 21.7904C69.104 17.6762 51.2754 13.7904 45.3326 11.8857C39.3897 9.98092 37.3326 4.26664 44.6469 1.21902Z" fill="#FF78B9"/>
<path d="M53.1802 4.72374C58.285 4.64755 71.9231 6.24755 83.5041 13.7142L77.3326 17.3714C70.0945 14.3999 54.8564 10.5142 51.2755 9.37136C47.6945 8.2285 48.3041 4.87612 53.1802 4.72374Z" fill="#FFAED7"/>
<path d="M121.066 13.0286L83.1234 11.3524C75.733 11.0476 69.4854 17.219 69.1806 25.0667C68.8758 32.9143 74.5901 39.619 81.9806 39.7714L120.076 40.6857C127.009 40.8381 132.8 34.819 133.028 27.2762C133.257 19.7333 127.923 13.3333 121.066 13.0286Z" fill="#FF78B9"/>
<path d="M121.676 35.7334L78.2471 34.5143C70.4757 34.3619 63.7709 40.9143 63.4662 49.3715C63.1614 57.8286 69.1804 64.6096 77.0281 64.6858L120.685 65.0667C127.999 65.1429 134.095 58.6667 134.323 50.5905C134.552 42.5143 128.99 35.9619 121.676 35.7334Z" fill="#FF78B9"/>
<path d="M102.833 37.426C103.526 36.75 103.039 35.1279 101.746 33.8028C100.453 32.4777 98.8433 31.9515 98.1506 32.6274C97.458 33.3034 97.9447 34.9255 99.2378 36.2506C100.531 37.5757 102.141 38.1019 102.833 37.426Z" fill="black"/>
<path d="M117.924 37.0183C119.249 35.7252 119.776 34.1154 119.1 33.4228C118.424 32.7301 116.802 33.2169 115.476 34.51C114.151 35.8031 113.625 37.4128 114.301 38.1055C114.977 38.7981 116.599 38.3114 117.924 37.0183Z" fill="black"/>
<path d="M110.4 43.7334C110.214 45.2864 109.666 46.774 108.8 48.0763C107.657 49.8286 106.133 51.0477 104.762 50.7429C103.39 50.4382 101.562 47.4667 101.486 44.7239C101.415 43.6929 101.544 42.658 101.867 41.6763L110.4 43.7334Z" fill="black"/>
<path d="M108.8 48.0763C107.657 49.8286 106.133 51.0477 104.762 50.7429C103.39 50.4382 101.562 47.4667 101.485 44.7239C104.838 44.8763 107.657 46.1715 108.8 48.0763Z" fill="#FF2EA2"/>
<path d="M113.6 111.39C113.066 112.914 101.257 144.228 101.257 144.228L80.5329 141.943L87.2377 119.467H87.1615L84.7996 119.314L75.5043 118.857C73.8188 118.759 72.1739 118.3 70.6806 117.512C69.1873 116.725 67.8803 115.626 66.8478 114.29C65.8152 112.954 65.0811 111.412 64.6949 109.769C64.3087 108.125 64.2795 106.418 64.6091 104.762L66.971 93.4094L105.523 96.457C111.542 97.5237 116.19 103.771 113.6 111.39Z" fill="#242145"/>
<path d="M89.3712 113.067L87.1617 119.467L84.7998 119.314L87.1617 112.381C87.2526 112.088 87.4562 111.843 87.7277 111.7C87.9992 111.557 88.3163 111.528 88.6093 111.619C88.9023 111.71 89.1472 111.914 89.2901 112.185C89.433 112.457 89.4622 112.774 89.3712 113.067Z" fill="black"/>
<path d="M84.2661 72.3047C82.2852 71.4667 78.4756 71.6952 78.4756 71.6952L78.2471 76.0381C80.228 75.8857 86.2471 75.8857 86.2471 75.8857C86.2471 75.8857 86.5518 73.2952 84.2661 72.3047Z" fill="#FF78B9"/>
<path d="M86.4761 75.5047C81.1428 75.3523 75.7332 74.8952 70.2475 75.1999L68.3428 93.7904C74.0571 92.419 79.6952 91.1999 85.2571 89.7523C87.5428 89.219 89.2952 85.8666 90.2094 82.8952C91.1237 79.9237 90.819 75.6571 86.4761 75.5047Z" fill="#FF78B9"/>
<path d="M70.4 50.362C67.1906 50.9311 63.8845 50.2766 61.1341 48.5276C58.3836 46.7786 56.3887 44.0622 55.5429 40.9144L54.3238 36.6477L13.0286 45.7906L13.7143 50.2096C14.2834 53.419 13.6289 56.7251 11.8799 59.4755C10.1309 62.226 7.41445 64.221 4.26667 65.0668L0 66.2858L4.8 87.9239C11.6571 118.705 49.4476 128.762 51.0476 129.219L53.3333 129.752L55.2381 128.229C60.8078 123.372 65.7249 117.815 69.8667 111.695C79.0857 98.1334 82.4381 84.1144 79.619 71.3144L74.819 49.6763L70.4 50.362Z" fill="#66BCFF"/>
<path d="M79.619 71.3144L74.819 49.6763L70.4 50.362C67.1906 50.9311 63.8845 50.2766 61.1341 48.5276C58.3836 46.7786 56.3887 44.0622 55.5429 40.9144L54.3238 36.6477L13.0286 45.7906L13.7143 50.2096C14.2834 53.419 13.6289 56.7251 11.8799 59.4755C10.1309 62.226 7.41445 64.221 4.26667 65.0668L0 66.2858L4.8 87.9239C11.6571 118.705 49.4476 128.762 51.0476 129.219L53.3333 129.752L55.2381 128.229C60.8078 123.372 65.7249 117.815 69.8667 111.695C79.0857 98.1334 82.4381 84.1144 79.619 71.3144ZM52.9524 125.562L52.4952 125.867L51.9619 125.714C51.5809 125.562 14.6286 115.733 8.30476 87.0858L4.19048 68.8001L5.25714 68.4953C9.23034 67.4014 12.655 64.8695 14.8656 61.3916C17.0763 57.9137 17.9151 53.7381 17.219 49.6763L17.0667 48.5334L51.8095 40.8382L52.1143 41.9048C53.2243 45.8841 55.7709 49.31 59.2614 51.5197C62.7519 53.7294 66.938 54.5657 71.0095 53.8668L72.0762 53.7144L76.1143 72.0763C82.5143 100.724 53.2571 125.257 52.9524 125.562Z" fill="#8CD9FF"/>
<path d="M49.7525 73.3714C47.9761 72.9893 46.1582 72.8357 44.3429 72.9143C44.1905 73.3714 44.1144 73.9047 43.962 74.3619L41.2953 74.7428C40.3066 74.9668 39.3381 75.2726 38.4001 75.6571C38.1124 75.2181 37.7805 74.8096 37.4096 74.4381C35.7318 75.1303 34.1453 76.0258 32.6858 77.1047C30.7377 81.8076 30.5483 87.0547 32.1525 91.8857C34.3571 92.8175 36.6989 93.3837 39.0858 93.5619C39.4106 92.7655 39.6905 91.9516 39.9239 91.1238C39.1406 91.0551 38.371 90.8755 37.6382 90.5905L38.0191 90.1333C40.1658 90.5728 42.3809 90.5557 44.5205 90.0832C46.6601 89.6106 48.6763 88.6932 50.4382 87.3905L51.0477 87.619C50.4652 88.1669 49.8267 88.6521 49.1429 89.0666C49.713 89.7383 50.3236 90.3744 50.9715 90.9714C53.0264 89.7728 54.8781 88.2555 56.4572 86.4762C55.9082 81.4325 53.5215 76.7676 49.7525 73.3714ZM39.6191 87.2381C39.0028 87.349 38.3677 87.2107 37.8533 86.8535C37.339 86.4964 36.9876 85.9495 36.8763 85.3333C36.7115 84.7172 36.7947 84.0611 37.1081 83.5056C37.4214 82.9501 37.9399 82.5395 38.5525 82.3619C39.1638 82.3043 39.7751 82.4725 40.271 82.8347C40.7668 83.1968 41.1131 83.7279 41.2443 84.3278C41.3755 84.9277 41.2827 85.5548 40.9833 86.091C40.6839 86.6271 40.1987 87.0351 39.6191 87.2381ZM47.7715 85.4095C47.4654 85.4754 47.149 85.4777 46.842 85.4163C46.535 85.3549 46.2439 85.231 45.9867 85.0524C45.7295 84.8738 45.5118 84.6443 45.347 84.378C45.1822 84.1118 45.0738 83.8146 45.0286 83.5047C44.8639 82.8886 44.9471 82.2325 45.2605 81.677C45.5738 81.1215 46.0923 80.711 46.7048 80.5333C47.0155 80.4791 47.3338 80.4875 47.6411 80.5583C47.9484 80.629 48.2385 80.7606 48.4941 80.9452C48.7497 81.1299 48.9658 81.3638 49.1296 81.6333C49.2934 81.9028 49.4015 82.2023 49.4477 82.5143C49.5393 82.8145 49.5681 83.1303 49.5323 83.4421C49.4965 83.7539 49.3969 84.055 49.2396 84.3266C49.0824 84.5983 48.8709 84.8346 48.6183 85.0209C48.3657 85.2072 48.0774 85.3395 47.7715 85.4095Z" fill="white"/>
<path d="M109.714 145.524C107.2 144.076 101.867 142.552 101.867 142.552L81.8285 137.448L78.7047 147.809C78.4289 148.855 78.362 149.945 78.5076 151.016C78.6533 152.088 79.0087 153.12 79.5535 154.054C80.0984 154.988 80.822 155.805 81.683 156.46C82.544 157.114 83.5255 157.592 84.5713 157.867L104.381 163.505C109.943 165.181 113.676 161.219 114.895 157.257C116.114 153.295 113.905 147.886 109.714 145.524Z" fill="#D18D5E"/>
<path d="M169.372 45.1809C166.324 47.619 159.696 44.7238 154.819 41.2952C153.017 40.0591 151.379 38.5999 149.943 36.9524C146.515 32.5333 148.877 28.2666 153.219 24.7619C157.562 21.2571 162.362 20.0381 165.791 24.3809C167.056 26.0596 168.081 27.9058 168.838 29.8666C171.124 35.4286 172.496 42.7428 169.372 45.1809Z" fill="#242145"/>
<path d="M169.372 45.181C166.324 47.6191 159.696 44.7238 154.819 41.2953C158.019 35.6572 162.591 31.1619 168.838 29.8667C171.124 35.4286 172.496 42.7429 169.372 45.181Z" fill="black"/>
<path d="M191.619 59.1238C195.505 51.1238 207.314 39.0857 207.695 43.1238C208.381 50.1333 205.638 63.0857 196.419 70.8571L191.619 59.1238Z" fill="#2859D1"/>
<path d="M156.343 56.838C152.305 48.838 140.343 36.9523 140.038 40.9904C139.429 48.0761 142.4 60.9523 151.695 68.6475L156.343 56.838Z" fill="#4C7DFF"/>
<path d="M147.885 61.4856C147.293 62.3306 146.657 63.1444 145.981 63.9237L144.99 65.0665C144.609 65.4475 144.381 65.9046 143.619 65.9046C143.157 65.872 142.722 65.6789 142.388 65.3588C142.054 65.0388 141.842 64.6119 141.79 64.1522C141.79 63.3903 142.247 63.1618 142.552 62.7808L143.695 61.7142C144.447 61.0132 145.235 60.352 146.057 59.7332C146.332 59.5507 146.668 59.4806 146.993 59.5372C147.319 59.5939 147.611 59.773 147.809 60.038C147.948 60.2513 148.028 60.4974 148.041 60.7515C148.055 61.0057 148.001 61.2589 147.885 61.4856Z" fill="#FFE75C"/>
<path d="M203.733 83.8096C203.2 92.7239 192.914 103.238 177.066 103.238C162.895 103.238 145.524 96.0001 145.905 77.6381C146.057 71.3143 150.324 60.3429 152.609 54.0191C153.016 52.9524 153.32 52.0382 153.524 51.2762C155.505 44.8762 158.933 38.781 163.886 35.1239L164.571 34.7429C168.192 32.2982 172.584 31.2679 176.914 31.8477C184.686 32.8382 189.105 36.1905 191.695 40.3048C194.286 44.4191 195.276 51.0477 195.581 55.162C195.886 59.2762 196.647 62.9334 198.781 66.6667C200.914 70.4001 204.19 76.8001 203.733 83.8096Z" fill="#4C7DFF"/>
<path d="M191.695 40.3048C189.105 36.1905 184.686 32.8382 176.914 31.8477C172.584 31.2679 168.192 32.2982 164.571 34.7429L163.886 35.1239C158.933 38.781 155.505 44.8763 153.524 51.2762C153.27 52.0382 152.965 52.9524 152.609 54.0191C158.019 55.6191 164.114 52.6477 166.4 46.9334C167.024 45.4635 167.346 43.8828 167.346 42.2858C167.346 40.6887 167.024 39.108 166.4 37.6382C170.286 40.6858 176.686 42.6667 182.552 42.6667C186.438 42.6667 189.486 41.7524 191.695 40.3048Z" fill="#242145"/>
<path d="M200.229 63.2381C200.797 64.101 201.434 64.9163 202.133 65.6762L203.124 66.8191C203.505 67.2 203.733 67.6572 204.495 67.6572C204.957 67.6246 205.392 67.4315 205.726 67.1114C206.06 66.7913 206.272 66.3644 206.324 65.9048C206.324 65.1429 205.867 64.8381 205.562 64.4572L204.419 63.3905L202.057 61.4858C201.765 61.3146 201.422 61.2514 201.088 61.3071C200.754 61.3627 200.45 61.5338 200.229 61.7905C200.115 62.0148 200.056 62.2628 200.056 62.5143C200.056 62.7659 200.115 63.0138 200.229 63.2381Z" fill="#FFE75C"/>
<path d="M146.286 12.5715C145.534 12.072 144.895 11.4209 144.409 10.6599C143.924 9.8989 143.603 9.0448 143.467 8.15243L143.01 5.10481C143.01 5.02398 142.978 4.94647 142.921 4.88931C142.863 4.83216 142.786 4.80005 142.705 4.80005C142.624 4.80005 142.547 4.83216 142.49 4.88931C142.432 4.94647 142.4 5.02398 142.4 5.10481L141.943 8.15243C141.807 9.0448 141.486 9.8989 141.001 10.6599C140.515 11.4209 139.876 12.072 139.124 12.5715L138.667 12.8C138.62 12.8355 138.581 12.8815 138.555 12.9344C138.528 12.9873 138.515 13.0457 138.515 13.1048C138.515 13.181 138.591 13.3334 138.667 13.3334L139.124 13.6381C139.876 14.1376 140.515 14.7887 141.001 15.5497C141.486 16.3107 141.807 17.1648 141.943 18.0572L142.4 21.1048C142.4 21.1856 142.432 21.2632 142.49 21.3203C142.547 21.3775 142.624 21.4096 142.705 21.4096C142.786 21.4096 142.863 21.3775 142.921 21.3203C142.978 21.2632 143.01 21.1856 143.01 21.1048L143.467 18.0572C143.603 17.1648 143.924 16.3107 144.409 15.5497C144.895 14.7887 145.534 14.1376 146.286 13.6381L146.743 13.3334C146.819 13.3334 146.896 13.181 146.896 13.1048C146.896 13.0457 146.882 12.9873 146.855 12.9344C146.829 12.8815 146.791 12.8355 146.743 12.8L146.286 12.5715Z" fill="#8CD9FF"/>
<path d="M18.2861 18.0571C17.5342 17.5576 16.895 16.9065 16.4095 16.1455C15.924 15.3845 15.603 14.5304 15.467 13.638L15.0099 10.5904C15.0099 10.5096 14.9778 10.4321 14.9206 10.3749C14.8635 10.3178 14.786 10.2856 14.7051 10.2856C14.6243 10.2856 14.5468 10.3178 14.4896 10.3749C14.4325 10.4321 14.4004 10.5096 14.4004 10.5904L13.9432 13.638C13.8072 14.5304 13.4862 15.3845 13.0008 16.1455C12.5153 16.9065 11.8761 17.5576 11.1242 18.0571L10.667 18.2856C10.6197 18.3211 10.5813 18.3671 10.5549 18.42C10.5284 18.4729 10.5146 18.5313 10.5146 18.5904C10.5146 18.6666 10.5908 18.819 10.667 18.819L11.1242 19.1237C11.8761 19.6232 12.5153 20.2743 13.0008 21.0353C13.4862 21.7963 13.8072 22.6504 13.9432 23.5428L14.4004 26.5904C14.4004 26.7428 14.5527 26.819 14.7051 26.819C14.8575 26.819 15.0099 26.7428 15.0099 26.5904L15.467 23.5428C15.603 22.6504 15.924 21.7963 16.4095 21.0353C16.895 20.2743 17.5342 19.6232 18.2861 19.1237L18.7432 18.819C18.8194 18.819 18.8956 18.6666 18.8956 18.5904C18.8956 18.5313 18.8818 18.4729 18.8554 18.42C18.8289 18.3671 18.7905 18.3211 18.7432 18.2856L18.2861 18.0571Z" fill="#808AFF"/>
<path d="M213.562 11.4286C212.437 10.7158 211.48 9.76783 210.757 8.64986C210.033 7.5319 209.561 6.27049 209.371 4.95243L208.686 0.380997C208.667 0.273384 208.611 0.175825 208.527 0.105956C208.444 0.0360875 208.337 -0.00148003 208.228 4.465e-05C208.119 -0.00148003 208.013 0.0360875 207.929 0.105956C207.845 0.175825 207.789 0.273384 207.771 0.380997L207.086 4.95243C206.896 6.27049 206.424 7.5319 205.7 8.64986C204.977 9.76783 204.02 10.7158 202.895 11.4286L202.362 11.8096C202.289 11.8412 202.227 11.8949 202.186 11.9633C202.145 12.0316 202.127 12.1111 202.133 12.1905C202.127 12.2699 202.145 12.3494 202.186 12.4178C202.227 12.4861 202.289 12.5399 202.362 12.5715L202.895 12.9524C204.015 13.6883 204.968 14.6522 205.69 15.7813C206.412 16.9105 206.887 18.1793 207.086 19.5048L207.771 24C207.789 24.1077 207.845 24.2052 207.929 24.2751C208.013 24.345 208.119 24.3825 208.228 24.381C208.337 24.3825 208.444 24.345 208.527 24.2751C208.611 24.2052 208.667 24.1077 208.686 24L209.371 19.5048C209.569 18.1793 210.045 16.9105 210.767 15.7813C211.489 14.6522 212.441 13.6883 213.562 12.9524L214.171 12.5715C214.244 12.5399 214.306 12.4861 214.347 12.4178C214.388 12.3494 214.406 12.2699 214.4 12.1905C214.406 12.1111 214.388 12.0316 214.347 11.9633C214.306 11.8949 214.244 11.8412 214.171 11.8096L213.562 11.4286Z" fill="#FFE75C"/>
<path d="M21.4093 150.933C20.3041 150.199 19.3618 149.245 18.6409 148.131C17.92 147.017 17.4359 145.766 17.2189 144.457L16.5332 139.886C16.515 139.778 16.4589 139.68 16.3751 139.611C16.2912 139.541 16.1851 139.503 16.076 139.505C15.9669 139.503 15.8608 139.541 15.777 139.611C15.6931 139.68 15.6371 139.778 15.6189 139.886L15.0093 144.457C14.7922 145.775 14.3002 147.033 13.5651 148.149C12.83 149.265 11.8684 150.213 10.7427 150.933L10.2093 151.314C10.1362 151.346 10.0748 151.4 10.0338 151.468C9.99278 151.536 9.97424 151.616 9.98078 151.695C9.97424 151.775 9.99278 151.854 10.0338 151.922C10.0748 151.991 10.1362 152.045 10.2093 152.076L10.7427 152.457C11.8643 153.199 12.8217 154.164 13.5556 155.291C14.2895 156.418 14.7843 157.683 15.0093 159.009L15.6189 163.505C15.6371 163.612 15.6931 163.71 15.777 163.78C15.8608 163.85 15.9669 163.887 16.076 163.886C16.1851 163.887 16.2912 163.85 16.3751 163.78C16.4589 163.71 16.515 163.612 16.5332 163.505L17.2189 159.009C17.4474 157.694 17.9356 156.437 18.6551 155.312C19.3745 154.187 20.3108 153.216 21.4093 152.457L22.0189 152.076C22.092 152.045 22.1534 151.991 22.1944 151.922C22.2354 151.854 22.254 151.775 22.2474 151.695C22.254 151.616 22.2354 151.536 22.1944 151.468C22.1534 151.4 22.092 151.346 22.0189 151.314L21.4093 150.933Z" fill="#34F4CF"/>
<path d="M304 146.438C303.248 145.939 302.609 145.288 302.123 144.527C301.638 143.766 301.317 142.911 301.181 142.019L300.724 138.972C300.724 138.891 300.692 138.813 300.635 138.756C300.577 138.699 300.5 138.667 300.419 138.667C300.338 138.667 300.261 138.699 300.203 138.756C300.146 138.813 300.114 138.891 300.114 138.972L299.657 142.019C299.522 142.921 299.193 143.783 298.693 144.545C298.193 145.308 297.535 145.954 296.762 146.438L296.381 146.667C296.334 146.702 296.295 146.748 296.269 146.801C296.242 146.854 296.229 146.912 296.229 146.972C296.229 147.048 296.305 147.2 296.381 147.2L296.762 147.505C297.535 147.989 298.193 148.635 298.693 149.398C299.193 150.16 299.522 151.022 299.657 151.924L300.114 154.972C300.114 155.124 300.267 155.2 300.419 155.2C300.571 155.2 300.724 155.124 300.724 154.972L301.181 151.924C301.317 151.032 301.638 150.177 302.123 149.416C302.609 148.655 303.248 148.004 304 147.505L304.457 147.2C304.533 147.2 304.533 147.048 304.533 146.972C304.533 146.819 304.533 146.743 304.457 146.667L304 146.438Z" fill="#FFAED7"/>
<path d="M180.037 68.4954C183.025 68.4954 185.447 65.1183 185.447 60.9525C185.447 56.7867 183.025 53.4097 180.037 53.4097C177.05 53.4097 174.628 56.7867 174.628 60.9525C174.628 65.1183 177.05 68.4954 180.037 68.4954Z" fill="white"/>
<path d="M181.637 64.2287C183.152 64.2287 184.38 62.5231 184.38 60.4191C184.38 58.3152 183.152 56.6096 181.637 56.6096C180.123 56.6096 178.895 58.3152 178.895 60.4191C178.895 62.5231 180.123 64.2287 181.637 64.2287Z" fill="black"/>
<path d="M192.381 83.2762C191.655 84.8015 190.676 86.1927 189.485 87.3905C188.172 88.7159 186.654 89.822 184.99 90.6667L183.619 91.2762C181.743 91.9738 179.753 92.3099 177.752 92.2667C175.767 92.1364 173.813 91.6995 171.961 90.9715C170.128 90.2422 168.428 89.2122 166.933 87.9238C165.057 86.3423 163.593 84.3291 162.666 82.0572C162.323 81.0918 162.068 80.0972 161.904 79.0857C161.447 76.4953 162.133 73.8286 164.266 72.6857C166.4 71.5429 167.009 71.8476 168.99 72.381C172.952 73.5238 176.304 76.4191 180.266 76.4191C183.009 76.4191 184.99 74.8191 188.038 74.8953L190.171 75.1238C192.533 75.7334 194.59 78.7048 192.381 83.2762Z" fill="black"/>
<path d="M189.485 87.3905C188.172 88.7159 186.654 89.822 184.99 90.6667L183.619 91.2762C183.607 91.1688 183.634 91.0608 183.695 90.9714L184.152 89.6L185.752 85.3333C186.362 83.2762 187.657 82.7428 188.647 85.0286C189.006 85.7856 189.286 86.5769 189.485 87.3905Z" fill="white"/>
<path d="M184.99 90.6667L183.618 91.2763C181.743 91.9738 179.752 92.3099 177.752 92.2667C175.766 92.1364 173.813 91.6995 171.961 90.9715C170.127 90.2422 168.428 89.2122 166.933 87.9239C165.057 86.3424 163.593 84.3292 162.666 82.0572C163.898 81.8393 165.148 81.7373 166.399 81.7525C173.485 81.7525 180.418 84.9525 184.152 89.6001C184.472 89.9216 184.753 90.2796 184.99 90.6667Z" fill="#FF2EA2"/>
<path d="M171.961 90.9714C170.127 90.2421 168.428 89.2121 166.933 87.9238L167.847 85.3333C168.456 83.2762 169.828 82.7428 170.818 85.0286C171.642 86.8981 172.033 88.9297 171.961 90.9714Z" fill="white"/>
<path d="M188.038 74.8953C186.895 79.0858 182.476 79.9239 177.219 79.6191C171.962 79.3143 165.638 77.1048 164.267 72.6858C165.409 72.0001 167.009 71.8477 168.99 72.381C172.952 73.5239 176.305 76.4191 180.267 76.4191C183.009 76.4191 184.99 74.8191 188.038 74.8953Z" fill="white"/>
<path d="M187.428 49.4477C187.428 52.0382 184.076 54.6286 180.038 54.6286C176 54.6286 172.571 51.8858 172.571 49.2953C172.571 46.7048 175.924 47.5429 180.038 47.5429C184.152 47.5429 187.428 46.8572 187.428 49.4477Z" fill="#242145"/>
</g>
<defs>
<linearGradient id="paint0_linear_12935_71350" x1="330.027" y1="10.1257" x2="236.617" y2="54.9257" gradientUnits="userSpaceOnUse">
<stop stop-color="#8CD9FF"/>
<stop offset="0.32" stop-color="#79CBFF"/>
<stop offset="0.69" stop-color="#6BC0FF"/>
<stop offset="1" stop-color="#66BCFF"/>
</linearGradient>
<linearGradient id="paint1_linear_12935_71350" x1="307.505" y1="92.9674" x2="260.351" y2="68.7313" gradientUnits="userSpaceOnUse">
<stop offset="0.06" stop-color="#AA5F44"/>
<stop offset="0.29" stop-color="#A15741"/>
<stop offset="0.59" stop-color="#8F473B"/>
</linearGradient>
<linearGradient id="paint2_linear_12935_71350" x1="117.216" y1="60.2756" x2="180.815" y2="24.9615" gradientUnits="userSpaceOnUse">
<stop stop-color="#FF2EA2"/>
<stop offset="0.36" stop-color="#FF4EAC"/>
<stop offset="0.77" stop-color="#FF78B9"/>
</linearGradient>
<clipPath id="clip0_12935_71350">
<rect width="320" height="175.238" fill="white"/>
</clipPath>
</defs>
</svg>
