<svg width="124" height="31" viewBox="0 0 124 31" fill="none" xmlns="http://www.w3.org/2000/svg">
<rect x="2" y="2" width="120" height="27" rx="13.5" fill="#5865F2"/>
<path d="M17.8652 19.2754C16.7246 19.2754 15.7402 19.084 14.9121 18.7012C14.0879 18.3145 13.4609 17.7871 13.0312 17.1191C12.6016 16.4473 12.3867 15.6895 12.3867 14.8457C12.3867 13.9902 12.6055 13.2207 13.043 12.5371C13.4805 11.8496 14.1191 11.3086 14.959 10.9141C15.7988 10.5195 16.7969 10.3223 17.9531 10.3223C18.6602 10.3223 19.3066 10.3926 19.8926 10.5332C20.4824 10.6738 21.043 10.877 21.5742 11.1426V13.6211C21.2344 13.3828 20.8086 13.1895 20.2969 13.041C19.7891 12.8926 19.248 12.8184 18.6738 12.8184C18.0449 12.8184 17.5039 12.9004 17.0508 13.0645C16.5977 13.2285 16.252 13.459 16.0137 13.7559C15.7793 14.0488 15.6621 14.3887 15.6621 14.7754C15.6621 15.166 15.7812 15.5117 16.0195 15.8125C16.2617 16.1094 16.6094 16.3418 17.0625 16.5098C17.5156 16.6738 18.0527 16.7559 18.6738 16.7559C19.2676 16.7559 19.8203 16.6777 20.332 16.5215C20.8438 16.3613 21.2656 16.1484 21.5977 15.8828V18.3027C21.0234 18.6387 20.4434 18.8848 19.8574 19.041C19.2754 19.1973 18.6113 19.2754 17.8652 19.2754ZM27.0117 19.2402C26.0664 19.2402 25.2461 19.0723 24.5508 18.7363C23.8594 18.3965 23.332 17.9355 22.9688 17.3535C22.6055 16.7715 22.4238 16.1211 22.4238 15.4023C22.4238 14.6797 22.6055 14.0371 22.9688 13.4746C23.332 12.9121 23.8594 12.4707 24.5508 12.1504C25.2422 11.8301 26.0625 11.6699 27.0117 11.6699C27.9609 11.6699 28.7793 11.8301 29.4668 12.1504C30.1543 12.4668 30.6777 12.9062 31.0371 13.4688C31.4004 14.0312 31.582 14.6758 31.582 15.4023C31.582 16.125 31.4004 16.7773 31.0371 17.3594C30.6777 17.9414 30.1523 18.4004 29.4609 18.7363C28.7734 19.0723 27.957 19.2402 27.0117 19.2402ZM27.0117 17.043C27.3477 17.043 27.6367 16.9766 27.8789 16.8438C28.125 16.7109 28.3125 16.5254 28.4414 16.2871C28.5742 16.0449 28.6406 15.7656 28.6406 15.4492C28.6406 15.1328 28.5742 14.8574 28.4414 14.623C28.3125 14.3848 28.125 14.2012 27.8789 14.0723C27.6367 13.9434 27.3477 13.8789 27.0117 13.8789C26.6719 13.8789 26.377 13.9434 26.127 14.0723C25.8809 14.2012 25.6914 14.3848 25.5586 14.623C25.4297 14.8574 25.3652 15.1328 25.3652 15.4492C25.3652 15.7656 25.4297 16.0449 25.5586 16.2871C25.6914 16.5254 25.8809 16.7109 26.127 16.8438C26.377 16.9766 26.6719 17.043 27.0117 17.043ZM43.0723 11.6699C43.9395 11.6699 44.5996 11.9434 45.0527 12.4902C45.5059 13.0332 45.7324 13.8223 45.7324 14.8574V19H42.7969V15.5312C42.7969 15.0586 42.709 14.6953 42.5332 14.4414C42.3613 14.1836 42.0996 14.0547 41.748 14.0547C41.3809 14.0547 41.1016 14.1875 40.9102 14.4531C40.7188 14.7148 40.623 15.0742 40.623 15.5312V19H37.6934V15.4258C37.6934 14.9961 37.6074 14.6602 37.4355 14.418C37.2637 14.1758 37.0059 14.0547 36.6621 14.0547C36.2949 14.0547 36.0117 14.1992 35.8125 14.4883C35.6172 14.7773 35.5195 15.1699 35.5195 15.666L35.5078 15.6543V19H32.584V11.9805H35.4844V13.627C35.6875 12.9551 35.998 12.4609 36.416 12.1445C36.834 11.8281 37.3711 11.6699 38.0273 11.6699C38.668 11.6699 39.1953 11.834 39.6094 12.1621C40.0273 12.4902 40.3184 12.9648 40.4824 13.5859C40.6855 12.9336 41 12.4512 41.4258 12.1387C41.8555 11.8262 42.4043 11.6699 43.0723 11.6699ZM48.4863 12.0156C48.1777 12.0156 47.9004 11.9648 47.6543 11.8633C47.4121 11.7617 47.2207 11.6211 47.0801 11.4414C46.9434 11.2578 46.875 11.0488 46.875 10.8145C46.875 10.5918 46.9434 10.3926 47.0801 10.2168C47.2207 10.0371 47.4121 9.89648 47.6543 9.79492C47.9004 9.69336 48.1777 9.64258 48.4863 9.64258C48.7871 9.64258 49.0566 9.69336 49.2949 9.79492C49.5371 9.89258 49.7246 10.0312 49.8574 10.2109C49.9902 10.3906 50.0566 10.5918 50.0566 10.8145C50.0566 11.0488 49.9902 11.2578 49.8574 11.4414C49.7246 11.6211 49.5391 11.7617 49.3008 11.8633C49.0625 11.9648 48.791 12.0156 48.4863 12.0156ZM46.998 12.4609H49.9336V19H46.998V12.4609ZM57.0352 11.6699C57.9844 11.6699 58.7031 11.9551 59.1914 12.5254C59.6797 13.0918 59.9238 13.9258 59.9238 15.0273V19H56.9824V15.6543C56.9824 15.123 56.8711 14.7227 56.6484 14.4531C56.4258 14.1797 56.0977 14.043 55.6641 14.043C55.1836 14.043 54.8203 14.1836 54.5742 14.4648C54.332 14.7422 54.2109 15.1543 54.2109 15.7012V19H51.2871V11.9805H54.1875V13.7383C54.4336 13.0352 54.7871 12.5156 55.248 12.1797C55.709 11.8398 56.3047 11.6699 57.0352 11.6699ZM69.9727 11.9805V17.2598C69.9727 18.1543 69.7676 18.918 69.3574 19.5508C68.9512 20.1875 68.3652 20.6699 67.5996 20.998C66.834 21.3301 65.9238 21.4961 64.8691 21.4961C64.1738 21.4961 63.5234 21.418 62.918 21.2617C62.3125 21.1094 61.832 20.9043 61.4766 20.6465V18.5312C61.7734 18.7891 62.1719 19.0098 62.6719 19.1934C63.1719 19.377 63.6934 19.4688 64.2363 19.4688C65.1504 19.4688 65.8457 19.2578 66.3223 18.8359C66.8027 18.4102 67.043 17.7812 67.043 16.9492V16.7676C66.7656 17.3848 66.3887 17.8379 65.9121 18.127C65.4395 18.4121 64.8691 18.5547 64.2012 18.5547C63.5215 18.5547 62.9297 18.4121 62.4258 18.127C61.9219 17.8379 61.5352 17.4395 61.2656 16.9316C60.9961 16.4238 60.8613 15.8457 60.8613 15.1973C60.8613 14.498 61.0039 13.8828 61.2891 13.3516C61.5742 12.8164 61.9746 12.4023 62.4902 12.1094C63.0059 11.8164 63.5996 11.6699 64.2715 11.6699C64.9473 11.6699 65.5098 11.8164 65.959 12.1094C66.4121 12.3984 66.7734 12.8457 67.043 13.4512V11.9805H69.9727ZM65.4609 16.5859C65.7812 16.5859 66.0605 16.5273 66.2988 16.4102C66.541 16.2891 66.7266 16.123 66.8555 15.9121C66.9883 15.6973 67.0547 15.4551 67.0547 15.1855C67.0547 14.9082 66.9902 14.6641 66.8613 14.4531C66.7324 14.2383 66.5488 14.0723 66.3105 13.9551C66.0762 13.8379 65.8008 13.7793 65.4844 13.7793C65.168 13.7793 64.8906 13.8398 64.6523 13.9609C64.418 14.082 64.2363 14.25 64.1074 14.4648C63.9785 14.6797 63.9141 14.9277 63.9141 15.209C63.9141 15.4746 63.9766 15.7129 64.1016 15.9238C64.2305 16.1309 64.4121 16.293 64.6465 16.4102C64.8809 16.5273 65.1523 16.5859 65.4609 16.5859ZM77.9707 19.2402C77.2793 19.2402 76.6094 19.1562 75.9609 18.9883C75.3164 18.8203 74.7344 18.5762 74.2148 18.2559V16.2637C74.4727 16.4668 74.7969 16.6484 75.1875 16.8086C75.5781 16.9648 75.9941 17.0879 76.4355 17.1777C76.877 17.2637 77.3008 17.3066 77.707 17.3066C77.9961 17.3066 78.2129 17.2695 78.3574 17.1953C78.5059 17.1211 78.5801 17.0312 78.5801 16.9258C78.5801 16.8047 78.5391 16.7051 78.457 16.627C78.3789 16.5449 78.2246 16.4766 77.9941 16.4219L76.5527 16.0938C75.9941 15.9648 75.5469 15.8027 75.2109 15.6074C74.8789 15.4121 74.6387 15.1816 74.4902 14.916C74.3457 14.6465 74.2734 14.3281 74.2734 13.9609C74.2734 13.5 74.4238 13.0977 74.7246 12.7539C75.0293 12.4062 75.4609 12.1387 76.0195 11.9512C76.582 11.7637 77.2402 11.6699 77.9941 11.6699C78.666 11.6699 79.2812 11.7422 79.8398 11.8867C80.4023 12.0273 80.8672 12.2109 81.2344 12.4375V14.3184C80.8516 14.0996 80.4141 13.9238 79.9219 13.791C79.4336 13.6543 78.9316 13.5859 78.416 13.5859C77.6621 13.5859 77.2852 13.7148 77.2852 13.9727C77.2852 14.0586 77.3125 14.127 77.3672 14.1777C77.4219 14.2285 77.502 14.2715 77.6074 14.3066C77.7168 14.3418 77.8809 14.3828 78.0996 14.4297L79.3008 14.6465C79.8203 14.7402 80.248 14.873 80.584 15.0449C80.9238 15.2129 81.1816 15.4453 81.3574 15.7422C81.5371 16.0352 81.627 16.4082 81.627 16.8613C81.627 17.3379 81.4863 17.7559 81.2051 18.1152C80.9238 18.4707 80.5098 18.748 79.9629 18.9473C79.416 19.1426 78.752 19.2402 77.9707 19.2402ZM86.8828 19.2402C85.9375 19.2402 85.1172 19.0723 84.4219 18.7363C83.7305 18.3965 83.2031 17.9355 82.8398 17.3535C82.4766 16.7715 82.2949 16.1211 82.2949 15.4023C82.2949 14.6797 82.4766 14.0371 82.8398 13.4746C83.2031 12.9121 83.7305 12.4707 84.4219 12.1504C85.1133 11.8301 85.9336 11.6699 86.8828 11.6699C87.832 11.6699 88.6504 11.8301 89.3379 12.1504C90.0254 12.4668 90.5488 12.9062 90.9082 13.4688C91.2715 14.0312 91.4531 14.6758 91.4531 15.4023C91.4531 16.125 91.2715 16.7773 90.9082 17.3594C90.5488 17.9414 90.0234 18.4004 89.332 18.7363C88.6445 19.0723 87.8281 19.2402 86.8828 19.2402ZM86.8828 17.043C87.2188 17.043 87.5078 16.9766 87.75 16.8438C87.9961 16.7109 88.1836 16.5254 88.3125 16.2871C88.4453 16.0449 88.5117 15.7656 88.5117 15.4492C88.5117 15.1328 88.4453 14.8574 88.3125 14.623C88.1836 14.3848 87.9961 14.2012 87.75 14.0723C87.5078 13.9434 87.2188 13.8789 86.8828 13.8789C86.543 13.8789 86.248 13.9434 85.998 14.0723C85.752 14.2012 85.5625 14.3848 85.4297 14.623C85.3008 14.8574 85.2363 15.1328 85.2363 15.4492C85.2363 15.7656 85.3008 16.0449 85.4297 16.2871C85.5625 16.5254 85.752 16.7109 85.998 16.8438C86.248 16.9766 86.543 17.043 86.8828 17.043ZM96.6914 19.2402C95.7461 19.2402 94.9258 19.0723 94.2305 18.7363C93.5391 18.3965 93.0117 17.9355 92.6484 17.3535C92.2852 16.7715 92.1035 16.1211 92.1035 15.4023C92.1035 14.6797 92.2852 14.0371 92.6484 13.4746C93.0117 12.9121 93.5391 12.4707 94.2305 12.1504C94.9219 11.8301 95.7422 11.6699 96.6914 11.6699C97.6406 11.6699 98.459 11.8301 99.1465 12.1504C99.834 12.4668 100.357 12.9062 100.717 13.4688C101.08 14.0312 101.262 14.6758 101.262 15.4023C101.262 16.125 101.08 16.7773 100.717 17.3594C100.357 17.9414 99.832 18.4004 99.1406 18.7363C98.4531 19.0723 97.6367 19.2402 96.6914 19.2402ZM96.6914 17.043C97.0273 17.043 97.3164 16.9766 97.5586 16.8438C97.8047 16.7109 97.9922 16.5254 98.1211 16.2871C98.2539 16.0449 98.3203 15.7656 98.3203 15.4492C98.3203 15.1328 98.2539 14.8574 98.1211 14.623C97.9922 14.3848 97.8047 14.2012 97.5586 14.0723C97.3164 13.9434 97.0273 13.8789 96.6914 13.8789C96.3516 13.8789 96.0566 13.9434 95.8066 14.0723C95.5605 14.2012 95.3711 14.3848 95.2383 14.623C95.1094 14.8574 95.0449 15.1328 95.0449 15.4492C95.0449 15.7656 95.1094 16.0449 95.2383 16.2871C95.3711 16.5254 95.5605 16.7109 95.8066 16.8438C96.0566 16.9766 96.3516 17.043 96.6914 17.043ZM108.012 11.6699C108.961 11.6699 109.68 11.9551 110.168 12.5254C110.656 13.0918 110.9 13.9258 110.9 15.0273V19H107.959V15.6543C107.959 15.123 107.848 14.7227 107.625 14.4531C107.402 14.1797 107.074 14.043 106.641 14.043C106.16 14.043 105.797 14.1836 105.551 14.4648C105.309 14.7422 105.188 15.1543 105.188 15.7012V19H102.264V11.9805H105.164V13.7383C105.41 13.0352 105.764 12.5156 106.225 12.1797C106.686 11.8398 107.281 11.6699 108.012 11.6699Z" fill="white"/>
<rect x="2" y="2" width="120" height="27" rx="13.5" stroke="#F7F7F7" stroke-width="4"/>
</svg>
