<svg width="50" height="50" viewBox="0 0 50 50" fill="none" xmlns="http://www.w3.org/2000/svg">
<circle cx="25" cy="25" r="25" fill="#5865F2" fill-opacity="0.13"/>
<path d="M21.6992 29.375C21.6992 31.1013 20.2992 32.5 18.5742 32.5C16.848 32.5 15.4492 31.1013 15.4492 29.375C15.4492 27.6487 16.848 26.25 18.5742 26.25C20.2992 26.25 21.6992 27.6487 21.6992 29.375Z" fill="#5865F2"/>
<path d="M24.6472 37.5C24.0897 35.3475 22.151 33.75 19.8247 33.75H17.3247C14.9972 33.75 13.0585 35.3475 12.501 37.5H24.6472Z" fill="#5865F2"/>
<path d="M34.5537 29.375C34.5537 31.1013 33.1537 32.5 31.4287 32.5C29.7025 32.5 28.3037 31.1013 28.3037 29.375C28.3037 27.6487 29.7025 26.25 31.4287 26.25C33.1525 26.25 34.5537 27.6487 34.5537 29.375Z" fill="#5865F2"/>
<path d="M37.5007 37.5C36.9432 35.3475 35.0045 33.75 32.6782 33.75H30.1782C27.8507 33.75 25.912 35.3475 25.3545 37.5H37.5007Z" fill="#5865F2"/>
<path d="M28.126 15.625C28.126 17.3512 26.726 18.75 25.001 18.75C23.2747 18.75 21.876 17.3512 21.876 15.625C21.876 13.8987 23.2747 12.5 25.001 12.5C26.726 12.5 28.126 13.8987 28.126 15.625Z" fill="#5865F2"/>
<path d="M31.074 23.75C30.5165 21.5975 28.5777 20 26.2515 20H23.7515C21.424 20 19.4852 21.5975 18.9277 23.75H31.074Z" fill="#5865F2"/>
</svg>
