<svg width="50" height="50" viewBox="0 0 50 50" fill="none" xmlns="http://www.w3.org/2000/svg">
<circle cx="25" cy="25" r="25" fill="#5865F2" fill-opacity="0.13"/>
<path d="M35.7022 23.7738C34.4335 18.2325 33.1235 12.5 25.001 12.5C19.4872 12.5 15.001 16.9863 15.001 22.5V37.5H30.001V33.75H31.251C32.6297 33.75 33.751 32.6288 33.751 31.25V27.5H36.6022C36.6022 27.5 35.8647 24.49 35.7022 23.7738ZM25.001 27.485C25.001 27.485 20.001 23.85 20.001 21.155C20.001 18.5963 23.8897 17.4838 25.001 20.845C26.1122 17.485 30.001 18.5963 30.001 21.155C30.001 23.85 25.001 27.485 25.001 27.485Z" fill="#5865F2"/>
</svg>
