<svg width="50" height="50" viewBox="0 0 50 50" fill="none" xmlns="http://www.w3.org/2000/svg">
<circle cx="25" cy="25" r="25" fill="#5865F2" fill-opacity="0.13"/>
<g clip-path="url(#clip0_13490_94127)">
<path fill-rule="evenodd" clip-rule="evenodd" d="M31.875 37.5C34.9816 37.5 37.5 34.9816 37.5 31.875C37.5 28.7684 34.9816 26.25 31.875 26.25C28.7684 26.25 26.25 28.7684 26.25 31.875C26.25 34.9816 28.7684 37.5 31.875 37.5ZM31.875 35C33.6009 35 35 33.6009 35 31.875C35 30.1491 33.6009 28.75 31.875 28.75C30.1491 28.75 28.75 30.1491 28.75 31.875C28.75 33.6009 30.1491 35 31.875 35Z" fill="#5865F2"/>
<path fill-rule="evenodd" clip-rule="evenodd" d="M38.75 40L35 36.3258L36.25 35L40.0758 38.6742L38.75 40Z" fill="#5865F2"/>
<circle cx="18.125" cy="18.125" r="5.625" fill="#5865F2"/>
<circle cx="18.125" cy="31.875" r="5.625" fill="#5865F2"/>
<circle cx="31.875" cy="18.125" r="5.625" fill="#5865F2"/>
</g>
<defs>
<clipPath id="clip0_13490_94127">
<rect width="30" height="30" fill="white" transform="translate(10 10)"/>
</clipPath>
</defs>
</svg>
